<?xml version="1.0" encoding="UTF-8" standalone="no"?>
<!-- Uploaded to: SVG Repo, www.svgrepo.com, Generator: SVG Repo Mixer Tools -->

<svg
   width="800px"
   height="800px"
   viewBox="0 0 48 48"
   version="1.1"
   id="svg2"
   xmlns="http://www.w3.org/2000/svg"
   xmlns:svg="http://www.w3.org/2000/svg">
  <defs
     id="defs2" />
  <g
     id="Layer_2"
     data-name="Layer 2">
    <g
       id="invisible_box"
       data-name="invisible box">
      <rect
         width="48"
         height="48"
         fill="none"
         id="rect1" />
    </g>
    <g
       id="Medical">
      <g
         id="g2">
        <path
           d="M 15.27207,8.7279301 H 27.272974 V 4.3639651 H 21.818017 A 2.1819825,2.1819825 0 0 1 21.818017,0 h 15.273878 a 2.1819825,2.1819825 0 0 1 0,4.3639651 h -5.454956 v 4.363965 h 8.72793 a 3.1638747,3.1638747 0 0 1 3.272974,3.2729739 v 8.72793 a 3.1638747,3.1638747 0 0 1 -3.272974,3.272974 H 19.636035 v 7.636939 a 3.1638747,3.1638747 0 0 1 -3.272974,3.272974 H 7.6351312 A 3.1638747,3.1638747 0 0 1 4.3621572,31.638747 V 19.637843 A 10.909913,10.909913 0 0 1 15.27207,8.7279301 Z M 8.7261222,30.547755 H 15.27207 v -7.636938 a 3.1638747,3.1638747 0 0 1 3.272974,-3.272974 H 39.273878 V 13.091895 H 15.27207 a 6.5459476,6.5459476 0 0 0 -6.5459478,6.545948 z"
           id="path1"
           style="stroke-width:1.09099" />
        <path
           d="m 11.999096,37.093703 3.272974,3.70937 a 4.2548659,4.2548659 0 0 1 -0.436397,6.109551 4.3639651,4.3639651 0 0 1 -5.6731538,0 4.2548659,4.2548659 0 0 1 -0.436397,-6.109551 z"
           id="path2"
           style="fill:#0000ff;stroke-width:1.09099" />
        <path
           d="m 10.689928,28.583971 h 2.618358 V 20.94701 c -0.0644,-1.833625 1.439348,-3.337371 3.272973,-3.272973 H 37.310093 V 15.055658 H 15.27207 c -2.797834,0 -4.582142,2.1658 -4.582142,4.582185 z"
           id="path3"
           style="fill:#0000ff;stroke-width:1.09099" />
      </g>
    </g>
  </g>
</svg>
