<?xml version="1.0" encoding="UTF-8" standalone="no"?>
<!-- Uploaded to: SVG Repo, www.svgrepo.com, Generator: SVG Repo Mixer Tools -->

<svg
   width="24"
   height="24"
   viewBox="0 0 24 24"
   fill="none"
   version="1.1"
   id="svg1"
   sodipodi:docname="turb.svg"
   inkscape:version="1.4.1-rc (06eac75fbf, 2025-03-29)"
   xmlns:inkscape="http://www.inkscape.org/namespaces/inkscape"
   xmlns:sodipodi="http://sodipodi.sourceforge.net/DTD/sodipodi-0.dtd"
   xmlns="http://www.w3.org/2000/svg"
   xmlns:svg="http://www.w3.org/2000/svg">
  <defs
     id="defs1" />
  <sodipodi:namedview
     id="namedview1"
     pagecolor="#ffffff"
     bordercolor="#000000"
     borderopacity="0.25"
     inkscape:showpageshadow="2"
     inkscape:pageopacity="0.0"
     inkscape:pagecheckerboard="0"
     inkscape:deskcolor="#d1d1d1"
     inkscape:zoom="28.313734"
     inkscape:cx="11.125343"
     inkscape:cy="11.92001"
     inkscape:window-width="1854"
     inkscape:window-height="1211"
     inkscape:window-x="0"
     inkscape:window-y="0"
     inkscape:window-maximized="1"
     inkscape:current-layer="svg1" />
  <g
     id="g1"
     transform="matrix(1.0926756,0,0,1.0926756,-1.1121449,-1.1121213)">
    <path
       id="path1"
       style="fill:#000000;stroke-width:0.877024"
       d="M 12.000049,2.4726838 6.4193132,8.05342 c -3.082486,3.082512 -3.0824862,8.080717 0,11.163186 2.4458296,2.445838 6.0969628,2.949742 9.0408608,1.514232 0.766343,-0.373699 1.483981,-0.877515 2.120611,-1.514232 2.303586,-2.303585 2.88662,-5.677749 1.747193,-8.521843 C 18.942702,9.7330032 18.359756,8.832382 17.580785,8.05342 Z m 0,2.4803272 4.340573,4.3405726 c 1.064133,1.0641654 1.656819,2.4224344 1.776312,3.8129894 a 6.1546672,5.8151752 0 0 1 0.03769,0.645776 6.1546672,5.8151752 0 0 1 -6.154569,5.815407 6.1546672,5.8151752 0 0 1 -6.1545684,-5.815407 6.1546672,5.8151752 0 0 1 0.037685,-0.644063 C 6.0021634,11.716903 6.5947064,10.358354 7.6594767,9.2935836 Z m -5.2775466,8.535546 a 5.2836724,4.9922249 0 0 0 -0.00685,0.258654 5.2836724,4.9922249 0 0 1 0.00856,-0.258654 z m 10.5533806,0 a 5.2836724,4.9922249 0 0 1 0.0086,0.263792 5.2836724,4.9922249 0 0 0 -0.0068,-0.263792 z M 7.11819,15.662269 A 5.2836724,4.9922249 0 0 0 7.8085019,16.791092 5.2836724,4.9922249 0 0 1 7.11819,15.662269 Z m 9.763719,0 a 5.2836724,4.9922249 0 0 1 -0.690312,1.128823 5.2836724,4.9922249 0 0 0 0.690312,-1.128823 z" />
    <path
       id="ellipse2"
       style="fill:#c8ab37;stroke-width:0.909957"
       d="m 6.7242152,13.488557 a 5.2836724,4.9922249 0 0 0 -0.00856,0.263792 5.2836724,4.9922249 0 0 0 0.4025394,1.90992 5.2836724,4.9922249 0 0 0 0.690312,1.128823 5.2836724,4.9922249 0 0 0 1.5502044,1.284699 5.2836724,4.9922249 0 0 0 1.274421,0.498465 5.2836724,4.9922249 0 0 0 1.366921,0.16958 5.2836724,4.9922249 0 0 0 1.366921,-0.16958 5.2836724,4.9922249 0 0 0 1.274423,-0.498465 5.2836724,4.9922249 0 0 0 1.550204,-1.284699 5.2836724,4.9922249 0 0 0 0.690312,-1.128823 5.2836724,4.9922249 0 0 0 0.402539,-1.90992 5.2836724,4.9922249 0 0 0 -0.0086,-0.263792 z" />
  </g>
  <rect
     style="fill:none;stroke:none"
     id="rect1"
     width="24"
     height="24"
     x="0"
     y="0" />
</svg>
